<svg width="29" height="29" viewBox="0 0 29 29" fill="none" xmlns="http://www.w3.org/2000/svg">
<path d="M9.79696 27.5098H5.01111C2.63003 27.5098 1.48096 26.4225 1.48096 24.1776V5.70428C1.48096 3.45942 2.64188 2.37207 5.01111 2.37207H9.79696C12.178 2.37207 13.3271 3.45942 13.3271 5.70428V24.1776C13.3271 26.4225 12.1662 27.5098 9.79696 27.5098ZM5.01111 4.12587C3.50665 4.12587 3.25788 4.52339 3.25788 5.70428V24.1776C3.25788 25.3585 3.50665 25.756 5.01111 25.756H9.79696C11.3014 25.756 11.5502 25.3585 11.5502 24.1776V5.70428C11.5502 4.52339 11.3014 4.12587 9.79696 4.12587H5.01111Z" fill="#5932EA"/>
<path d="M23.419 16.987H18.6332C16.2521 16.987 15.103 15.8997 15.103 13.6548V5.70428C15.103 3.45942 16.2639 2.37207 18.6332 2.37207H23.419C25.8001 2.37207 26.9492 3.45942 26.9492 5.70428V13.6548C26.9492 15.8997 25.7883 16.987 23.419 16.987ZM18.6332 4.12587C17.1287 4.12587 16.88 4.52339 16.88 5.70428V13.6548C16.88 14.8357 17.1287 15.2332 18.6332 15.2332H23.419C24.9235 15.2332 25.1723 14.8357 25.1723 13.6548V5.70428C25.1723 4.52339 24.9235 4.12587 23.419 4.12587H18.6332Z" fill="#5932EA"/>
<path d="M23.419 27.5092H18.6332C16.2521 27.5092 15.103 26.4219 15.103 24.177V22.0724C15.103 19.8276 16.2639 18.7402 18.6332 18.7402H23.419C25.8001 18.7402 26.9492 19.8276 26.9492 22.0724V24.177C26.9492 26.4219 25.7883 27.5092 23.419 27.5092ZM18.6332 20.494C17.1287 20.494 16.88 20.8916 16.88 22.0724V24.177C16.88 25.3579 17.1287 25.7554 18.6332 25.7554H23.419C24.9235 25.7554 25.1723 25.3579 25.1723 24.177V22.0724C25.1723 20.8916 24.9235 20.494 23.419 20.494H18.6332Z" fill="#5932EA"/>
</svg>
