<svg width="32" height="32" viewBox="0 0 32 32" fill="none" xmlns="http://www.w3.org/2000/svg">
<g clip-path="url(#clip0_1198_815)">
<path d="M15.9991 32C18.5219 32 20.5684 30.2094 20.5684 28H11.4298C11.4298 30.2094 13.4762 32 15.9991 32ZM31.3841 22.6431C30.0041 21.3456 27.4219 19.3938 27.4219 13C27.4219 8.14375 23.5305 4.25625 18.2834 3.3025V2C18.2834 0.895625 17.2605 0 15.9991 0C14.7376 0 13.7148 0.895625 13.7148 2V3.3025C8.46765 4.25625 4.57622 8.14375 4.57622 13C4.57622 19.3938 1.99407 21.3456 0.614073 22.6431C0.185501 23.0463 -0.00449861 23.5281 -0.000927178 24C0.00692997 25.025 0.926216 26 2.29193 26H29.7062C31.0719 26 31.9919 25.025 31.9991 24C32.0026 23.5281 31.8127 23.0456 31.3841 22.6431V22.6431Z" fill="white"/>
</g>
<defs>
<clipPath id="clip0_1198_815">
<rect width="32" height="32" fill="white"/>
</clipPath>
</defs>
</svg>
