<svg width="336" height="104" viewBox="0 0 336 104" fill="none" xmlns="http://www.w3.org/2000/svg">
<path d="M69.6641 0H100.812V103.641H80.6328V33.5391C80.6328 31.5234 80.6562 28.7109 80.7031 25.1016C80.75 21.4453 80.7734 18.6328 80.7734 16.6641L61.1562 103.641H40.1328L20.6562 16.6641C20.6562 18.6328 20.6797 21.4453 20.7266 25.1016C20.7734 28.7109 20.7969 31.5234 20.7969 33.5391V103.641H0.617188V0H32.1172L50.9609 81.4922L69.6641 0Z" fill="white"/>
<path d="M143.498 64.4766H169.795L156.857 23.6953L143.498 64.4766ZM144.834 0H169.302L206.006 103.641H182.521L175.842 82.3359H137.662L130.49 103.641H107.849L144.834 0Z" fill="white"/>
<path d="M233.292 103.641H211.777V0H233.292V103.641Z" fill="white"/>
<path d="M268.806 18V85.6406H288.775C298.993 85.6406 306.118 80.6016 310.15 70.5234C312.353 64.9922 313.454 58.4062 313.454 50.7656C313.454 40.2188 311.79 32.1328 308.462 26.5078C305.181 20.8359 298.618 18 288.775 18H268.806ZM292.431 0C298.853 0.09375 304.197 0.84375 308.462 2.25C315.728 4.64062 321.611 9.02344 326.111 15.3984C329.72 20.5547 332.181 26.1328 333.493 32.1328C334.806 38.1328 335.462 43.8516 335.462 49.2891C335.462 63.0703 332.697 74.7422 327.165 84.3047C319.665 97.1953 308.087 103.641 292.431 103.641H247.783V0H292.431Z" fill="white"/>
</svg>
