<svg width="28" height="28" viewBox="0 0 28 28" fill="none" xmlns="http://www.w3.org/2000/svg">
<path d="M14.2534 13.3601C14.2195 13.3601 14.1969 13.3601 14.163 13.3601C14.1066 13.349 14.0275 13.349 13.9598 13.3601C10.685 13.2598 8.21191 10.7186 8.21191 7.58675C8.21191 4.39914 10.8431 1.80225 14.0727 1.80225C17.3023 1.80225 19.9335 4.39914 19.9335 7.58675C19.9222 10.7186 17.4379 13.2598 14.2873 13.3601C14.276 13.3601 14.2647 13.3601 14.2534 13.3601ZM14.0727 3.47407C11.7803 3.47407 9.90578 5.32422 9.90578 7.58675C9.90578 9.81585 11.6674 11.6103 13.9146 11.6883C13.9711 11.6771 14.1292 11.6771 14.276 11.6883C16.4893 11.588 18.2283 9.79356 18.2396 7.58675C18.2396 5.32422 16.3651 3.47407 14.0727 3.47407Z" fill="#7B7B7B"/>
<path d="M14.2642 25.5414C12.0509 25.5414 9.82628 24.9841 8.1437 23.8696C6.57405 22.8442 5.71582 21.4398 5.71582 19.9129C5.71582 18.386 6.57405 16.9705 8.1437 15.934C11.5314 13.716 17.0196 13.716 20.3847 15.934C21.9431 16.9594 22.8126 18.3637 22.8126 19.8906C22.8126 21.4175 21.9544 22.833 20.3847 23.8696C18.6909 24.9841 16.4775 25.5414 14.2642 25.5414ZM9.08097 17.3383C7.9969 18.0516 7.40969 18.9655 7.40969 19.9241C7.40969 20.8714 8.00819 21.7854 9.08097 22.4875C11.8928 24.3488 16.6356 24.3488 19.4475 22.4875C20.5315 21.7742 21.1187 20.8603 21.1187 19.9018C21.1187 18.9544 20.5202 18.0405 19.4475 17.3383C16.6356 15.4882 11.8928 15.4882 9.08097 17.3383Z" fill="#7B7B7B"/>
</svg>
