<svg width="28" height="28" viewBox="0 0 28 28" fill="none" xmlns="http://www.w3.org/2000/svg">
<path d="M14.0731 18.2888C11.7355 18.2888 9.83838 16.4164 9.83838 14.1092C9.83838 11.8021 11.7355 9.92969 14.0731 9.92969C16.4106 9.92969 18.3077 11.8021 18.3077 14.1092C18.3077 16.4164 16.4106 18.2888 14.0731 18.2888ZM14.0731 11.6015C12.6728 11.6015 11.5322 12.7272 11.5322 14.1092C11.5322 15.4913 12.6728 16.617 14.0731 16.617C15.4733 16.617 16.6139 15.4913 16.6139 14.1092C16.6139 12.7272 15.4733 11.6015 14.0731 11.6015Z" fill="#7B7B7B"/>
<path d="M17.6974 25.4664C17.4602 25.4664 17.2231 25.433 16.986 25.3773C16.2858 25.1878 15.6986 24.7531 15.326 24.1401L15.1905 23.9172C14.5242 22.7804 13.6095 22.7804 12.9433 23.9172L12.819 24.129C12.4464 24.7531 11.8592 25.1989 11.159 25.3773C10.4476 25.5667 9.71361 25.4664 9.09253 25.0986L7.15022 23.9952C6.46138 23.6051 5.96451 22.9698 5.74996 22.2008C5.54669 21.4318 5.64832 20.6404 6.04356 19.9606C6.37104 19.3921 6.46138 18.8794 6.26941 18.5562C6.07744 18.233 5.59186 18.0435 4.92561 18.0435C3.27691 18.0435 1.93311 16.7172 1.93311 15.09V13.1284C1.93311 11.5011 3.27691 10.1748 4.92561 10.1748C5.59186 10.1748 6.07744 9.98535 6.26941 9.66213C6.46138 9.33891 6.38233 8.82622 6.04356 8.2578C5.64832 7.57792 5.54669 6.77545 5.74996 6.01755C5.95322 5.24852 6.45009 4.61322 7.15022 4.22313L9.10382 3.11973C10.3799 2.37298 12.0624 2.80765 12.8303 4.08939L12.9658 4.3123C13.6321 5.44914 14.5468 5.44914 15.213 4.3123L15.3373 4.10053C16.1051 2.80765 17.7877 2.37298 19.0751 3.13087L21.0174 4.23428C21.7062 4.62437 22.2031 5.25966 22.4176 6.0287C22.6209 6.79774 22.5193 7.58907 22.124 8.26894C21.7965 8.83736 21.7062 9.35006 21.8982 9.67328C22.0901 9.99649 22.5757 10.186 23.242 10.186C24.8907 10.186 26.2345 11.5123 26.2345 13.1395V15.1011C26.2345 16.7284 24.8907 18.0547 23.242 18.0547C22.5757 18.0547 22.0901 18.2442 21.8982 18.5674C21.7062 18.8906 21.7852 19.4033 22.124 19.9717C22.5193 20.6516 22.6322 21.4541 22.4176 22.2119C22.2144 22.981 21.7175 23.6163 21.0174 24.0064L19.0638 25.1098C18.6347 25.3438 18.1717 25.4664 17.6974 25.4664ZM14.0725 21.3426C15.0775 21.3426 16.0148 21.9667 16.6585 23.0702L16.7827 23.2819C16.9182 23.516 17.144 23.6832 17.4151 23.75C17.6861 23.8169 17.9571 23.7835 18.183 23.6497L20.1366 22.5352C20.4302 22.368 20.656 22.0893 20.7463 21.755C20.8367 21.4206 20.7915 21.0751 20.6221 20.7853C19.9785 19.6931 19.8994 18.5674 20.3963 17.7092C20.8931 16.851 21.9208 16.3606 23.2081 16.3606C23.9308 16.3606 24.5067 15.7921 24.5067 15.0788V13.1172C24.5067 12.4151 23.9308 11.8355 23.2081 11.8355C21.9208 11.8355 20.8931 11.3451 20.3963 10.4869C19.8994 9.62869 19.9785 8.503 20.6221 7.41074C20.7915 7.12096 20.8367 6.77545 20.7463 6.44108C20.656 6.10672 20.4414 5.83923 20.1478 5.6609L18.1942 4.5575C17.7087 4.26771 17.065 4.4349 16.7714 4.9253L16.6472 5.13706C16.0035 6.24046 15.0662 6.86461 14.0612 6.86461C13.0562 6.86461 12.1189 6.24046 11.4752 5.13706L11.351 4.91415C11.0687 4.44604 10.4363 4.27886 9.95075 4.5575L7.99716 5.67204C7.70355 5.83923 7.4777 6.11786 7.38736 6.45223C7.29702 6.78659 7.34219 7.1321 7.51158 7.42189C8.15525 8.51414 8.2343 9.63984 7.73743 10.498C7.24056 11.3562 6.21295 11.8466 4.92561 11.8466C4.20289 11.8466 3.62697 12.4151 3.62697 13.1284V15.09C3.62697 15.7921 4.20289 16.3717 4.92561 16.3717C6.21295 16.3717 7.24056 16.8621 7.73743 17.7203C8.2343 18.5785 8.15525 19.7042 7.51158 20.7965C7.34219 21.0863 7.29702 21.4318 7.38736 21.7661C7.4777 22.1005 7.69226 22.368 7.98586 22.5463L9.93946 23.6497C10.1766 23.7946 10.4589 23.828 10.7186 23.7612C10.9897 23.6943 11.2155 23.516 11.3623 23.2819L11.4865 23.0702C12.1302 21.9779 13.0675 21.3426 14.0725 21.3426Z" fill="#7B7B7B"/>
</svg>
