<svg width="29" height="29" viewBox="0 0 29 29" fill="none" xmlns="http://www.w3.org/2000/svg">
<path d="M9.66617 26.591H19.3328C24.1903 26.591 25.0603 24.6709 25.3141 22.3334L26.2203 12.7925C26.5466 9.88256 25.7008 7.50928 20.5412 7.50928H8.45784C3.29826 7.50928 2.45242 9.88256 2.77867 12.7925L3.68492 22.3334C3.93867 24.6709 4.80867 26.591 9.66617 26.591Z" stroke="black" stroke-width="1.5" stroke-miterlimit="10" stroke-linecap="round" stroke-linejoin="round"/>
<path d="M9.66602 7.5092V6.55511C9.66602 4.4442 9.66602 2.73877 13.5327 2.73877H15.466C19.3327 2.73877 19.3327 4.4442 19.3327 6.55511V7.5092" stroke="black" stroke-width="1.5" stroke-miterlimit="10" stroke-linecap="round" stroke-linejoin="round"/>
<path d="M16.9163 15.8576V17.0503C16.9163 17.0622 16.9163 17.0622 16.9163 17.0741C16.9163 18.374 16.9043 19.4355 14.4997 19.4355C12.1072 19.4355 12.083 18.386 12.083 17.086V15.8576C12.083 14.665 12.083 14.665 13.2913 14.665H15.708C16.9163 14.665 16.9163 14.665 16.9163 15.8576Z" stroke="black" stroke-width="1.5" stroke-miterlimit="10" stroke-linecap="round" stroke-linejoin="round"/>
<path d="M26.1598 13.4722C23.3685 15.4757 20.1785 16.6684 16.916 17.0738" stroke="black" stroke-width="1.5" stroke-miterlimit="10" stroke-linecap="round" stroke-linejoin="round"/>
<path d="M3.16553 13.7944C5.88428 15.631 8.95344 16.7402 12.083 17.086" stroke="black" stroke-width="1.5" stroke-miterlimit="10" stroke-linecap="round" stroke-linejoin="round"/>
</svg>
