<svg width="28" height="28" viewBox="0 0 28 28" fill="none" xmlns="http://www.w3.org/2000/svg">
<path d="M19.833 24.5114H8.16634C3.49967 24.5114 2.33301 23.3599 2.33301 18.7539V9.54208C2.33301 4.93615 3.49967 3.78467 8.16634 3.78467H19.833C24.4997 3.78467 25.6663 4.93615 25.6663 9.54208V18.7539C25.6663 23.3599 24.4997 24.5114 19.833 24.5114Z" stroke="#7B7B7B" stroke-width="1.75" stroke-linecap="round" stroke-linejoin="round"/>
<path d="M16.333 9.54199H22.1663" stroke="#7B7B7B" stroke-width="1.75" stroke-linecap="round" stroke-linejoin="round"/>
<path d="M17.4995 14.1479H22.1662" stroke="#7B7B7B" stroke-width="1.75" stroke-linecap="round" stroke-linejoin="round"/>
<path d="M19.833 18.7539H22.1663" stroke="#7B7B7B" stroke-width="1.75" stroke-linecap="round" stroke-linejoin="round"/>
<path d="M9.91684 13.33C11.0831 13.33 12.0285 12.3969 12.0285 11.2458C12.0285 10.0947 11.0831 9.16162 9.91684 9.16162C8.7506 9.16162 7.80518 10.0947 7.80518 11.2458C7.80518 12.3969 8.7506 13.33 9.91684 13.33Z" stroke="#7B7B7B" stroke-width="1.75" stroke-linecap="round" stroke-linejoin="round"/>
<path d="M13.9997 19.1337C13.8363 17.4641 12.4947 16.1514 10.803 16.0017C10.2197 15.9441 9.62467 15.9441 9.02967 16.0017C7.33801 16.1629 5.99634 17.4641 5.83301 19.1337" stroke="#7B7B7B" stroke-width="1.75" stroke-linecap="round" stroke-linejoin="round"/>
</svg>
