<svg width="29" height="29" viewBox="0 0 29 29" fill="none" xmlns="http://www.w3.org/2000/svg">
<path d="M12.2158 13.6289H9.01371C8.25246 13.6289 7.63623 14.2371 7.63623 14.9884V21.0946H12.2158V13.6289V13.6289Z" stroke="black" stroke-width="1.5" stroke-miterlimit="10" stroke-linecap="round" stroke-linejoin="round"/>
<path d="M15.4192 8.20264H13.5826C12.8213 8.20264 12.2051 8.81088 12.2051 9.56223V21.0828H16.7847V9.56223C16.7847 8.81088 16.1805 8.20264 15.4192 8.20264Z" stroke="black" stroke-width="1.5" stroke-miterlimit="10" stroke-linecap="round" stroke-linejoin="round"/>
<path d="M19.995 15.6562H16.793V21.0827H21.3726V17.0158C21.3605 16.2645 20.7442 15.6562 19.995 15.6562Z" stroke="black" stroke-width="1.5" stroke-miterlimit="10" stroke-linecap="round" stroke-linejoin="round"/>
<path d="M10.8743 26.5689H18.1243C24.166 26.5689 26.5827 24.1837 26.5827 18.2207V11.065C26.5827 5.10201 24.166 2.7168 18.1243 2.7168H10.8743C4.83268 2.7168 2.41602 5.10201 2.41602 11.065V18.2207C2.41602 24.1837 4.83268 26.5689 10.8743 26.5689Z" stroke="black" stroke-width="1.5" stroke-linecap="round" stroke-linejoin="round"/>
</svg>
