<svg width="29" height="29" viewBox="0 0 29 29" fill="none" xmlns="http://www.w3.org/2000/svg">
<path d="M21.9189 26.135C20.8556 26.4451 19.5989 26.5882 18.1247 26.5882H10.8747C9.40057 26.5882 8.1439 26.4451 7.08057 26.135C7.3464 23.0342 10.5726 20.5894 14.4997 20.5894C18.4268 20.5894 21.6531 23.0342 21.9189 26.135Z" stroke="black" stroke-width="1.5" stroke-linecap="round" stroke-linejoin="round"/>
<path d="M18.1243 2.73633H10.8743C4.83268 2.73633 2.41602 5.12154 2.41602 11.0846V18.2402C2.41602 22.7483 3.79352 25.217 7.08018 26.1353C7.34602 23.0345 10.5723 20.5896 14.4993 20.5896C18.4264 20.5896 21.6527 23.0345 21.9185 26.1353C25.2052 25.217 26.5827 22.7483 26.5827 18.2402V11.0846C26.5827 5.12154 24.166 2.73633 18.1243 2.73633ZM14.4993 17.2503C12.1068 17.2503 10.1735 15.3303 10.1735 12.9689C10.1735 10.6076 12.1068 8.69936 14.4993 8.69936C16.8918 8.69936 18.8252 10.6076 18.8252 12.9689C18.8252 15.3303 16.8918 17.2503 14.4993 17.2503Z" stroke="black" stroke-width="1.5" stroke-linecap="round" stroke-linejoin="round"/>
<path d="M18.8255 12.9688C18.8255 15.3301 16.8922 17.2502 14.4997 17.2502C12.1072 17.2502 10.1738 15.3301 10.1738 12.9688C10.1738 10.6074 12.1072 8.69922 14.4997 8.69922C16.8922 8.69922 18.8255 10.6074 18.8255 12.9688Z" stroke="black" stroke-width="1.5" stroke-linecap="round" stroke-linejoin="round"/>
</svg>
